<?xml version="1.0" encoding="UTF-8"?>
<svg width="41px" height="35px" viewBox="0 0 41 35" version="1.1" xmlns="http://www.w3.org/2000/svg" xmlns:xlink="http://www.w3.org/1999/xlink">
    <!-- Generator: Sketch 52.6 (67491) - http://www.bohemiancoding.com/sketch -->
    <title>Group</title>
    <desc>Created with Sketch.</desc>
    <g id="Page-1" stroke="none" stroke-width="1" fill="none" fill-rule="evenodd">
        <g id="Re-Baseline2" transform="translate(-1188.000000, -189.000000)" fill="#BF1E2E">
            <g id="return2" transform="translate(1188.000000, 189.000000)">
                <g id="Group">
                    <path d="M35.8645833,17.4270833 C36.3333333,17.7395833 36.96875,17.6145833 37.2916667,17.1458333 L40.0416667,13.0625 C40.3541667,12.59375 40.2291667,11.9583333 39.7604167,11.6354167 C39.2916667,11.3125 38.65625,11.4479167 38.3333333,11.9166667 L37.0625,13.8020833 L36.8020833,12.8125 C35.7291667,8.79166667 33.21875,5.29166667 29.75,2.95833333 C21.8020833,-2.39583333 10.96875,-0.260416667 5.60416667,7.71875 C5.29166667,8.1875 5.41666667,8.82291667 5.88541667,9.14583333 C6.35416667,9.46875 6.98958333,9.33333333 7.3125,8.86458333 C12.0416667,1.83333333 21.59375,-0.0520833333 28.59375,4.65625 C31.6145833,6.6875 33.8125,9.73958333 34.78125,13.2395833 L35.1145833,14.4583333 L32.9375,12.9895833 C32.46875,12.6770833 31.8333333,12.8020833 31.5104167,13.2708333 C31.1979167,13.7395833 31.3229167,14.375 31.7916667,14.6979167 L35.8645833,17.4270833 Z" id="Path"></path>
                    <path d="M34.2604167,25.8333333 C33.7916667,25.5208333 33.15625,25.6458333 32.8333333,26.1145833 C28.1041667,33.1458333 18.5520833,35.03125 11.5520833,30.3229167 C8.5625,28.3125 6.375,25.3020833 5.39583333,21.8645833 L5.05208333,20.625 L7.30208333,22.1354167 C7.77083333,22.4479167 8.40625,22.3229167 8.72916667,21.8541667 C9.04166667,21.3854167 8.91666667,20.75 8.44791667,20.4270833 L4.40625,17.7083333 C4.39583333,17.6979167 4.375,17.6979167 4.36458333,17.6770833 C4.33333333,17.65625 4.30208333,17.6458333 4.26041667,17.625 L4.21875,17.6041667 C4.20833333,17.59375 4.19791667,17.59375 4.17708333,17.5833333 C4.15625,17.5729167 4.125,17.5729167 4.09375,17.5625 L4.03125,17.5416667 C4.01041667,17.5416667 3.98958333,17.53125 3.97916667,17.53125 C3.95833333,17.53125 3.9375,17.53125 3.92708333,17.53125 L3.88541667,17.53125 C3.84375,17.53125 3.8125,17.5208333 3.78125,17.53125 C3.77083333,17.53125 3.76041667,17.53125 3.75,17.53125 C3.72916667,17.53125 3.70833333,17.5416667 3.6875,17.5416667 C3.64583333,17.5520833 3.60416667,17.5520833 3.58333333,17.5625 C3.55208333,17.5729167 3.52083333,17.5833333 3.48958333,17.59375 C3.45833333,17.6041667 3.42708333,17.6145833 3.38541667,17.6354167 C3.36458333,17.6458333 3.33333333,17.6666667 3.30208333,17.6770833 C3.27083333,17.6979167 3.23958333,17.7083333 3.21875,17.7291667 C3.19791667,17.7395833 3.17708333,17.7604167 3.14583333,17.7916667 L3.13541667,17.8020833 C3.11458333,17.8229167 3.09375,17.84375 3.07291667,17.8541667 C3.05208333,17.875 3.02083333,17.9166667 3,17.9479167 C2.98958333,17.96875 2.96875,17.9791667 2.95833333,18 L0.208333333,22.0625 C-0.104166667,22.53125 0.0208333333,23.1666667 0.489583333,23.4895833 C0.958333333,23.8125 1.59375,23.6770833 1.91666667,23.2083333 L3.14583333,21.3854167 L3.41666667,22.3541667 C4.52083333,26.2916667 7.01041667,29.71875 10.4166667,32.0104167 C18.3645833,37.3541667 29.1875,35.21875 34.5520833,27.2395833 C34.8645833,26.78125 34.7395833,26.1458333 34.2604167,25.8333333 Z" id="Path"></path>
                </g>
            </g>
        </g>
    </g>
</svg>